<?xml version="1.0" standalone="no"?>
<!DOCTYPE svg PUBLIC "-//W3C//DTD SVG 20010904//EN"
 "http://www.w3.org/TR/2001/REC-SVG-20010904/DTD/svg10.dtd">
<svg version="1.0" xmlns="http://www.w3.org/2000/svg"
 width="300.000000pt" height="300.000000pt" viewBox="0 0 300.000000 300.000000"
 preserveAspectRatio="xMidYMid meet">
<metadata>
Created by potrace 1.10, written by Peter Selinger 2001-2011
</metadata>
<g transform="translate(0.000000,300.000000) scale(0.050000,-0.050000)"
fill="#000000" stroke="none">
<path d="M2700 5370 l-289 -290 194 0 195 0 0 -805 0 -805 -565 565 -564 565
139 140 139 140 -415 0 -414 0 0 -414 0 -415 140 139 140 139 565 -564 565
-565 -805 0 -805 0 0 195 0 195 -295 -295 -295 -295 295 -295 295 -295 0 195
0 195 805 0 805 0 -565 -565 -565 -564 -140 139 -140 139 0 -415 0 -414 414 0
415 0 -139 140 -139 140 564 565 565 565 0 -805 0 -805 -195 0 -195 0 295
-295 295 -295 295 295 295 295 -195 0 -195 0 0 805 0 805 565 -565 564 -565
-139 -140 -139 -140 415 0 414 0 0 414 0 415 -140 -139 -140 -139 -565 564
-565 565 805 0 805 0 0 -195 0 -195 295 295 295 295 -295 295 -295 295 0 -195
0 -195 -805 0 -805 0 565 565 565 564 140 -139 140 -139 0 415 0 414 -414 0
-415 0 139 -140 139 -140 -564 -565 -565 -565 0 805 0 805 195 0 194 0 -289
290 c-159 160 -294 290 -300 290 -6 0 -141 -130 -300 -290z"/>
</g>
</svg>
